<svg xmlns="http://www.w3.org/2000/svg" version="1.1" xmlns:xlink="http://www.w3.org/1999/xlink" xmlns:svgjs="http://svgjs.com/svgjs" width="1440" height="560" preserveAspectRatio="none" viewBox="0 0 1440 560">
    <g mask="url(&quot;#SvgjsMask1001&quot;)" fill="none">
        <rect width="1440" height="560" x="0" y="0" fill="#0e2a47"></rect>
        <path d="M0,347.511C63.952,347.217,105.152,281.195,154.829,240.919C198.761,205.302,244.563,173.394,274.185,125.216C306.708,72.32,333.034,14.308,332.339,-47.783C331.591,-114.604,315.647,-185.141,270.165,-234.099C225.162,-282.541,155.245,-294.836,90.476,-308.132C30.169,-320.511,-30.754,-323.083,-90.475,-308.13C-152.02,-292.72,-205.862,-260.866,-255.602,-221.481C-314.767,-174.634,-388.291,-131.742,-405.914,-58.362C-423.763,15.96,-395.715,99.633,-346.831,158.392C-301.416,212.981,-218.089,208.349,-155.745,242.344C-99.611,272.953,-63.936,347.804,0,347.511" fill="#0b2239"></path>
        <path d="M1440 956.283C1528.9470000000001 950.56 1628.419 1017.956 1701.747 967.287 1775.42 916.38 1743.737 797.014 1785.295 717.691 1830.516 631.376 1957.9160000000002 583.479 1953.8339999999998 486.122 1949.834 390.709 1837.953 340.524 1766.811 276.817 1704.432 220.957 1644.214 161.70100000000002 1564.155 137.16699999999997 1483.532 112.45999999999998 1395.161 108.868 1316.313 138.76100000000002 1240.21 167.61399999999998 1183.319 230.77800000000002 1138.334 298.605 1097.193 360.63599999999997 1096.968 436.962 1072.025 507.093 1039.276 599.173 952.566 678.806 968.8389999999999 775.172 985.506 873.867 1062.2440000000001 966.511 1155.671 1002.424 1247.147 1037.587 1342.201 962.576 1440 956.283" fill="#113255"></path>
    </g>
    <defs>
        <mask id="SvgjsMask1001">
            <rect width="1440" height="560" fill="#ffffff"></rect>
        </mask>
    </defs>
</svg>